<svg width="254" height="48" viewBox="0 0 254 48" fill="none" xmlns="http://www.w3.org/2000/svg">
<g clip-path="url(#clip0_1562_3259)">
<path d="M75.429 29.291C76.2461 28.5714 76.7815 27.5852 76.94 26.508H83.358C83.1221 29.0724 81.9177 31.4505 79.99 33.158C78.0566 34.8747 75.251 35.734 71.573 35.736C69.9804 35.7914 68.3931 35.5237 66.9067 34.949C65.4204 34.3743 64.0659 33.5044 62.925 32.392C61.8009 31.2735 60.9198 29.935 60.3367 28.4604C59.7535 26.9858 59.4809 25.4068 59.536 23.822C59.475 22.2339 59.7427 20.6503 60.3222 19.1704C60.9018 17.6906 61.7807 16.3463 62.904 15.222C64.0532 14.1176 65.4131 13.2558 66.9024 12.688C68.3917 12.1202 69.9801 11.858 71.573 11.917C75.2463 11.917 78.0566 12.77 80.004 14.476C81.9461 16.1787 83.1491 18.5706 83.358 21.145H76.94C76.7312 20.0727 76.165 19.1029 75.334 18.394C74.3196 17.5936 73.0455 17.1958 71.756 17.277C70.9929 17.2575 70.235 17.4071 69.5365 17.715C68.838 18.0229 68.2163 18.4815 67.716 19.058C66.6098 20.391 66.0547 22.0962 66.164 23.825C66.0977 25.5572 66.6696 27.2534 67.771 28.592C68.2667 29.1685 68.8845 29.6273 69.5797 29.9352C70.2749 30.2431 71.0299 30.3923 71.79 30.372C73.0948 30.4733 74.391 30.0883 75.429 29.291V29.291Z" fill="white"/>
<path d="M88.041 32.478C86.8751 31.3683 85.9603 30.0218 85.3582 28.5291C84.756 27.0364 84.4804 25.4321 84.55 23.824C84.4804 22.2161 84.7559 20.6119 85.3581 19.1193C85.9603 17.6268 86.8751 16.2805 88.041 15.171C90.5729 13.0638 93.7629 11.9099 97.057 11.9099C100.351 11.9099 103.541 13.0638 106.073 15.171C107.239 16.2806 108.153 17.6269 108.756 19.1194C109.358 20.612 109.633 22.2161 109.564 23.824C109.633 25.4321 109.358 27.0363 108.755 28.529C108.153 30.0216 107.239 31.3681 106.073 32.478C103.539 34.5809 100.35 35.7319 97.057 35.7319C93.7642 35.7319 90.5749 34.5809 88.041 32.478V32.478ZM101.334 28.642C102.507 27.3202 103.109 25.5883 103.01 23.824C103.059 22.9511 102.935 22.0771 102.643 21.253C102.351 20.4289 101.898 19.6712 101.31 19.024C100.176 17.9039 98.6456 17.2759 97.0515 17.2759C95.4573 17.2759 93.9273 17.9039 92.793 19.024C92.2068 19.6723 91.7548 20.4302 91.463 21.254C91.1712 22.0779 91.0455 22.9513 91.093 23.824C91.0448 24.6995 91.1702 25.5759 91.462 26.4027C91.7537 27.2296 92.2061 27.9906 92.793 28.642C93.3534 29.2026 94.0188 29.6473 94.7511 29.9507C95.4834 30.2541 96.2683 30.4102 97.061 30.4102C97.8537 30.4102 98.6385 30.2541 99.3709 29.9507C100.103 29.6473 100.769 29.2026 101.329 28.642H101.334Z" fill="white"/>
<path d="M131.149 15.088C132.31 16.208 133.217 17.5644 133.808 19.0654C134.4 20.5664 134.662 22.1769 134.577 23.788C134.577 27.5173 133.439 30.4406 131.162 32.558C128.665 34.7572 125.41 35.8977 122.087 35.738H111.946V11.914H122.089C125.406 11.7584 128.654 12.8963 131.149 15.088V15.088ZM126.349 28.945C127.513 27.4885 128.081 25.6448 127.938 23.786C128.079 21.9397 127.503 20.1101 126.329 18.678C125.783 18.1101 125.122 17.6649 124.391 17.3718C123.659 17.0787 122.874 16.9445 122.087 16.978H118.516V30.656H122.089C122.88 30.6945 123.671 30.5615 124.406 30.2662C125.141 29.9709 125.804 29.5202 126.349 28.945V28.945Z" fill="white"/>
<path d="M154.826 30.597V35.736H136.959V11.914H154.652V17.053H143.412V21.291H153.092V26.254H143.412V30.597H154.826Z" fill="white"/>
<path d="M173.1 29.291C173.917 28.5716 174.453 27.5854 174.612 26.508H181.031C180.794 29.0723 179.589 31.45 177.662 33.158C175.729 34.8747 172.923 35.734 169.245 35.736C167.652 35.7916 166.065 35.5239 164.578 34.9492C163.092 34.3745 161.737 33.5046 160.596 32.392C159.472 31.2733 158.591 29.9348 158.008 28.4602C157.425 26.9856 157.153 25.4067 157.208 23.822C157.147 22.2339 157.415 20.6503 157.994 19.1704C158.574 17.6906 159.453 16.3464 160.576 15.222C161.725 14.1171 163.085 13.255 164.574 12.6871C166.063 12.1193 167.652 11.8574 169.245 11.917C172.918 11.917 175.728 12.77 177.675 14.476C179.617 16.1787 180.821 18.5705 181.031 21.145H174.612C174.403 20.0727 173.837 19.103 173.006 18.394C171.989 17.5936 170.713 17.196 169.421 17.277C168.658 17.2573 167.9 17.4068 167.202 17.7148C166.503 18.0227 165.882 18.4814 165.382 19.058C164.275 20.3903 163.719 22.0961 163.83 23.825C163.763 25.5569 164.334 27.2532 165.435 28.592C165.931 29.1683 166.549 29.6271 167.244 29.9349C167.939 30.2428 168.694 30.3921 169.454 30.372C170.761 30.4719 172.059 30.087 173.1 29.291V29.291Z" fill="white"/>
<path d="M185.712 32.478C184.546 31.3681 183.632 30.0215 183.03 28.5289C182.428 27.0362 182.153 25.432 182.222 23.824C182.152 22.2162 182.428 20.6121 183.03 19.1195C183.632 17.627 184.546 16.2807 185.712 15.171C188.244 13.0638 191.434 11.9099 194.728 11.9099C198.022 11.9099 201.212 13.0638 203.744 15.171C204.91 16.2806 205.824 17.6269 206.427 19.1194C207.029 20.612 207.304 22.2161 207.235 23.824C207.304 25.4321 207.029 27.0363 206.426 28.529C205.824 30.0216 204.91 31.3681 203.744 32.478C201.21 34.581 198.021 35.7322 194.728 35.7322C191.435 35.7322 188.246 34.581 185.712 32.478V32.478ZM199.006 28.642C200.179 27.3202 200.781 25.5883 200.682 23.824C200.731 22.9512 200.606 22.0772 200.314 21.2532C200.022 20.4291 199.57 19.6713 198.982 19.024C197.848 17.9039 196.318 17.2759 194.723 17.2759C193.129 17.2759 191.599 17.9039 190.465 19.024C189.879 19.6723 189.427 20.4302 189.135 21.254C188.843 22.0779 188.718 22.9513 188.765 23.824C188.717 24.6995 188.842 25.5759 189.134 26.4027C189.426 27.2296 189.878 27.9906 190.465 28.642C191.025 29.2026 191.691 29.6473 192.423 29.9507C193.155 30.2541 193.94 30.4102 194.733 30.4102C195.526 30.4102 196.311 30.2541 197.043 29.9507C197.775 29.6473 198.441 29.2026 199.001 28.642H199.006Z" fill="white"/>
<path d="M211.918 32.478C210.752 31.3682 209.837 30.0217 209.235 28.5291C208.633 27.0364 208.357 25.4321 208.426 23.824C208.357 22.216 208.633 20.6118 209.235 19.1193C209.837 17.6268 210.752 16.2805 211.918 15.171C214.449 13.0637 217.639 11.9099 220.933 11.9099C224.227 11.9099 227.416 13.0637 229.948 15.171C231.114 16.2805 232.029 17.6268 232.631 19.1193C233.233 20.6118 233.509 22.216 233.44 23.824C233.509 25.4321 233.233 27.0364 232.631 28.5291C232.029 30.0217 231.114 31.3682 229.948 32.478C227.414 34.5809 224.225 35.7319 220.933 35.7319C217.64 35.7319 214.451 34.5809 211.918 32.478V32.478ZM225.209 28.642C226.381 27.3214 226.985 25.5913 226.889 23.828C226.939 22.9551 226.814 22.081 226.522 21.2569C226.23 20.4327 225.777 19.675 225.189 19.028C224.054 17.908 222.524 17.2801 220.929 17.2801C219.335 17.2801 217.805 17.908 216.67 19.028C216.084 19.6761 215.632 20.434 215.34 21.2579C215.048 22.0818 214.922 22.9553 214.97 23.828C214.922 24.7035 215.047 25.5799 215.339 26.4068C215.63 27.2337 216.083 27.9947 216.67 28.646C217.802 29.7781 219.338 30.414 220.939 30.414C222.541 30.414 224.076 29.7781 225.209 28.646V28.642Z" fill="white"/>
<path d="M253.689 30.251V35.736H235.822V11.914H242.392V30.251H253.689Z" fill="white"/>
<path d="M33.842 10.304C35.5243 10.2885 37.186 10.6749 38.689 11.431C39.4125 11.7956 40.075 12.2702 40.653 12.838C42.3742 14.4109 44.0049 16.0803 45.537 17.838C47.0454 19.7097 47.7781 22.0889 47.584 24.485C47.4339 26.4629 46.6764 28.3461 45.415 29.877C45.223 30.109 45.015 30.341 44.796 30.563L39.512 35.849C39.4993 35.8631 39.4822 35.8724 39.4634 35.8751C39.4447 35.8779 39.4256 35.874 39.4094 35.8641C39.3933 35.8543 39.381 35.839 39.3749 35.8211C39.3688 35.8032 39.3692 35.7837 39.376 35.766C39.8586 33.9162 39.8481 31.9722 39.3456 30.1276C38.8431 28.2831 37.8662 26.6024 36.512 25.253L25.579 14.319L27.06 12.838C28.9022 11.1388 31.3369 10.2291 33.842 10.304V10.304Z" fill="white"/>
<path d="M37.253 33.83C37.2692 35.5133 36.8832 37.1761 36.127 38.68C35.7625 39.4035 35.2874 40.0658 34.719 40.643C33.1463 42.3645 31.4769 43.9951 29.719 45.527C27.8479 47.036 25.4689 47.7691 23.073 47.575C21.0948 47.4248 19.2113 46.6672 17.68 45.406C17.449 45.213 17.217 45.006 16.994 44.787L11.709 39.503C11.6949 39.4904 11.6856 39.4732 11.6829 39.4544C11.6801 39.4357 11.684 39.4166 11.6939 39.4004C11.7037 39.3843 11.7189 39.3721 11.7369 39.366C11.7548 39.3598 11.7743 39.3602 11.792 39.367C13.6418 39.8495 15.5858 39.839 17.4303 39.3365C19.2748 38.834 20.9555 37.8571 22.305 36.503L33.239 25.568L34.719 27.049C36.4184 28.8907 37.3281 31.3252 37.253 33.83V33.83Z" fill="white"/>
<path d="M13.771 37.297C12.0881 37.3126 10.4258 36.9266 8.92197 36.171C8.19843 35.8061 7.53588 35.3311 6.95797 34.763C5.23671 33.19 3.60609 31.5207 2.07397 29.763C0.565675 27.8916 -0.167016 25.5127 0.0269693 23.117C0.177014 21.1388 0.934562 19.2552 2.19598 17.724C2.38798 17.493 2.59098 17.26 2.81498 17.038L8.09898 11.752C8.11199 11.739 8.12897 11.7308 8.14721 11.7287C8.16545 11.7265 8.18388 11.7305 8.19956 11.7401C8.21524 11.7497 8.22726 11.7642 8.23368 11.7814C8.2401 11.7986 8.24056 11.8175 8.23498 11.835C7.75236 13.6848 7.76282 15.6288 8.26531 17.4733C8.76781 19.3179 9.7448 20.9986 11.099 22.348L22.034 33.285L20.553 34.765C18.7106 36.4638 16.2758 37.3728 13.771 37.297V37.297Z" fill="white"/>
<path d="M10.36 13.771C10.3439 12.0881 10.73 10.4256 11.486 8.92199C11.8506 8.19825 12.3256 7.53565 12.894 6.95799C14.467 5.23673 16.1363 3.60611 17.894 2.07399C19.7652 0.565242 22.1442 -0.167511 24.54 0.0269921C26.5184 0.176264 28.4022 0.933897 29.933 2.19599C30.164 2.38799 30.396 2.59599 30.619 2.81399L35.904 8.09899C35.9175 8.11178 35.9261 8.12881 35.9285 8.14722C35.9309 8.16563 35.9269 8.1843 35.9172 8.20011C35.9075 8.21593 35.8926 8.22792 35.8751 8.23409C35.8576 8.24026 35.8385 8.24022 35.821 8.23399C33.9712 7.75179 32.0274 7.76255 30.1831 8.26521C28.3388 8.76788 26.6583 9.7449 25.309 11.099L14.374 22.033L12.894 20.553C11.1947 18.7109 10.2849 16.2761 10.36 13.771V13.771Z" fill="white"/>
</g>
<defs>
<clipPath id="clip0_1562_3259">
<rect width="253.689" height="47.603" fill="white"/>
</clipPath>
</defs>
</svg>
