<svg height="108" viewBox="0 0 486 108" width="486" xmlns="http://www.w3.org/2000/svg"><g fill="none" fill-rule="evenodd"><g fill="#016492"><path d="m146.8 45.4h-25.1c-.8 0-1.5.7-1.5 1.5v56.6c0 .8.7 1.5 1.5 1.5h25.2c19.8 0 32.6-11.7 32.6-29.8 0-18.2-12.8-29.8-32.7-29.8m0 43.8h-8.6v-28.1h8.7c8.9 0 14.3 5.2 14.3 14 0 7-4.9 14.1-14.4 14.1" fill-rule="nonzero"/><path d="m290.9 60.7c-6.9 0-12.6 3.8-15.1 7.6-1.8-5-6-7.6-12.4-7.6-7.1 0-12.4 3.6-14.3 6v-3.4c0-.8-.7-1.5-1.5-1.5h-13.1c-.8 0-1.5.7-1.5 1.5v40.1c0 .8.7 1.5 1.5 1.5h13.1c.8 0 1.5-.7 1.5-1.5v-25.1c.9-1.1 2.9-3.4 6.5-3.4 3.2 0 4.9 1.7 4.9 4.8v23.7c0 .8.7 1.5 1.5 1.5h13.1c.8 0 1.5-.7 1.5-1.5v-25.1c.9-1.1 2.9-3.4 6.6-3.4 3.1 0 4.9 1.8 4.9 4.8v23.7c0 .8.7 1.5 1.5 1.5h13.1c.8 0 1.5-.7 1.5-1.5v-29.8c.1-8.3-4.7-12.9-13.3-12.9" fill-rule="nonzero"/><path d="m325.4 61.8h-13.1c-.8 0-1.5.7-1.5 1.5v40.1c0 .8.7 1.5 1.5 1.5h13.1c.8 0 1.5-.7 1.5-1.5v-40.1c0-.8-.7-1.5-1.5-1.5" fill-rule="nonzero"/><path d="m319.2 40.6c-5 0-9 4-9 9s4.1 9 9 9c5 0 9-4 9-9 .1-4.9-4-9-9-9" fill-rule="nonzero"/><path d="m364.6 60.7c-8.3 0-12.9 3.7-14.8 6v-3.4c0-.8-.7-1.5-1.5-1.5h-13.1c-.8 0-1.5.7-1.5 1.5v40.1c0 .8.7 1.5 1.5 1.5h13.1c.8 0 1.5-.7 1.5-1.5v-25.1c1-1.2 3-3.4 6.9-3.4 4.2 0 6.3 2.1 6.3 6.2v22.4c0 .8.7 1.5 1.5 1.5h13.1c.8 0 1.5-.7 1.5-1.5v-29.1c-.1-8.6-5.5-13.7-14.5-13.7" fill-rule="nonzero"/><path d="m205.5 60.5c-12.6 0-22.8 10.2-22.8 22.8s10.2 22.8 22.8 22.8 22.8-10.2 22.8-22.8c-.1-12.6-10.3-22.8-22.8-22.8m0 30.3c-4.3 0-7.8-3.5-7.8-7.8s3.5-7.8 7.8-7.8 7.8 3.5 7.8 7.8c-.1 4.3-3.5 7.8-7.8 7.8" fill-rule="nonzero"/><path d="m406.5 60.6c-12.6 0-22.8 10.2-22.8 22.8s10.2 22.8 22.8 22.8 22.8-10.2 22.8-22.8-10.2-22.8-22.8-22.8m0 30.2c-4.3 0-7.8-3.5-7.8-7.8s3.5-7.8 7.8-7.8 7.8 3.5 7.8 7.8-3.5 7.8-7.8 7.8" fill-rule="nonzero"/><path d="m441.9 47.9c0-.1 0-.1 0 0 0-.1 0-.1 0-.1-1-4.5-5.9-7.7-10.7-6.7-4.9 1-8.1 5.5-7.1 10.1.8 3.8 4.1 6.4 8 6.6-.2 1.5-1.6 2.9-2.7 3.6-.8.4-.3 1.2-.3 1.2l1 1.5c.3.5.7.8 1.2.5 9.9-4.2 11.6-12.7 10.6-16.7z" fill-rule="nonzero"/><path d="m453.5 74.6c0-1.6 2-2.3 4.7-2.3 5.2 0 8.2 1.5 11.5 3.7.3.2.8.3 1.2.2s.8-.4 1-.7l4.4-7.7c.4-.7.2-1.6-.5-2-3.6-2.2-8.9-5-18.2-5-13.3 0-20.4 6.3-19.2 15.3 2.1 15.8 26.7 10.4 26.3 15.8-.1 1.2-2.3 2.2-6 2.2-4.9 0-10.4-2.4-13.9-4.6-.3-.2-.8-.3-1.2-.2s-.7.4-.9.7l-5.1 8.5c-.4.7-.2 1.6.5 2 4.9 3.3 12.8 5.5 19.7 5.5 13.3 0 21-5.7 21-15.1-.2-17.4-25.2-12-25.3-16.3" fill-rule="nonzero"/></g><path d="m23.8 63.5c-2.2 0-4.4.8-6 2.5-1.7 1.7-2.5 3.8-2.5 6s.8 4.3 2.5 6 3.8 2.5 6 2.5 4.3-.8 6-2.5 2.5-3.8 2.5-6-.8-4.3-2.5-6-3.9-2.5-6-2.5z"/><path d="m48.7 80.8c2.2 0 4.4-.8 6-2.5 1.7-1.7 2.5-3.8 2.5-6s-.8-4.4-2.5-6c-1.7-1.7-3.8-2.5-6-2.5s-4.3.8-6 2.5-2.5 3.8-2.5 6 .8 4.3 2.5 6 3.8 2.5 6 2.5z"/><path d="m75 4c-.7-.7-1.6-1.1-2.6-1.1-.9 0-1.9.4-2.6 1.1l-24.5 24.6-7.2 7.2 34.5 34.5 2.9-2.9 28.9-28.8c1.4-1.4 1.4-3.7 0-5.1z"/><path d="m106.5 31.3-29.4-29.4c-1.2-1.2-2.9-1.9-4.6-1.9-1.8 0-3.4.7-4.6 1.9l-24.7 24.6-41 41c-2.6 2.6-2.6 6.7 0 9.3l29.3 29.3c1.2 1.2 2.9 1.9 4.6 1.9 1.8 0 3.4-.7 4.6-1.9l36.7-36.7 28.9-28.9c2.7-2.5 2.7-6.7.2-9.2z" fill="#fff" fill-rule="nonzero"/><path d="m104.4 33.3-29.4-29.3c-1.4-1.4-3.7-1.4-5.1 0l-31.7 31.7 34.5 34.5 31.7-31.7c1.4-1.5 1.4-3.7 0-5.2zm-25.8 8.5c-1.7 1.7-3.8 2.5-6 2.5s-4.3-.8-6-2.5-2.5-3.8-2.5-6 .8-4.4 2.5-6c1.7-1.7 3.8-2.5 6-2.5s4.3.8 6 2.5 2.5 3.8 2.5 6-.9 4.4-2.5 6z" fill="#e21d38" fill-rule="nonzero"/><path d="m4.4 69.5c-1.4 1.4-1.4 3.7 0 5.1l29.3 29.4c.7.7 1.6 1.1 2.6 1.1.9 0 1.9-.4 2.6-1.1l31.7-31.7-34.5-34.5zm25.4 8.5c-1.7 1.6-3.8 2.5-6 2.5s-4.4-.8-6-2.5c-1.7-1.7-2.5-3.8-2.5-6s.8-4.4 2.5-6c1.7-1.7 3.8-2.5 6-2.5s4.4.8 6 2.5c1.7 1.7 2.5 3.8 2.5 6s-.9 4.3-2.5 6zm12.9-11.7c1.7-1.7 3.8-2.5 6-2.5s4.4.8 6 2.5c1.7 1.7 2.5 3.8 2.5 6s-.8 4.3-2.5 6-3.8 2.5-6 2.5-4.3-.8-6-2.5-2.5-3.8-2.5-6c0-2.1.8-4.3 2.5-6z" fill="#016492" fill-rule="nonzero"/><path d="m481.9 69c-2.1 0-3.7-1.7-3.7-3.7 0-2.1 1.7-3.7 3.7-3.7 2.1 0 3.7 1.6 3.7 3.7 0 2-1.6 3.7-3.7 3.7zm0-6.9c-1.8 0-3.2 1.4-3.2 3.2 0 1.7 1.4 3.2 3.2 3.2s3.2-1.4 3.2-3.2-1.4-3.2-3.2-3.2zm1 5.3-1.1-1.7h-.7v1.7h-.6v-4.3h1.7c.7 0 1.4.5 1.4 1.3 0 .9-.8 1.3-1.1 1.3l1.1 1.7zm-.7-3.7h-1.1v1.5h1.1c.4 0 .8-.3.8-.7 0-.5-.4-.8-.8-.8z" fill="#016492" fill-rule="nonzero"/></g></svg>