<svg xmlns="http://www.w3.org/2000/svg" viewBox="0 0 597.25 110.19"><defs><style>.cls-1{fill:#1c3968;}.cls-2{fill:#1d3969;}</style></defs><g id="Layer_2" data-name="Layer 2"><g id="Layer_1-2" data-name="Layer 1"><path class="cls-1" d="M64.62,67.53,76.72,50.3V84.78Zm38.9-23.48a.61.61,0,0,0,.61-.61V24.17a.61.61,0,0,0-.61-.61H73.35a.61.61,0,0,0-.5.26L53.39,51.52l-5.32-7.59,29.46-42A1.23,1.23,0,0,0,77.61.66,1.22,1.22,0,0,0,76.52,0H55.87a1.24,1.24,0,0,0-1,.52L28.33,38.36V1.23A1.23,1.23,0,0,0,27.1,0H1.23A1.23,1.23,0,0,0,0,1.23V21A1.23,1.23,0,0,0,1.23,22.2h4.9V65.66H1.23A1.23,1.23,0,0,0,0,66.89V86.64a1.23,1.23,0,0,0,1.23,1.22H27.1a1.23,1.23,0,0,0,1.23-1.22V49.46L41.62,68.29,12.87,109.23a.6.6,0,0,0,0,.63.59.59,0,0,0,.54.33h21a.59.59,0,0,0,.5-.26l18-25.69,2.19,3.1a1.21,1.21,0,0,0,1,.52H76.52l.2,0v21.74a.61.61,0,0,0,.61.61h26.19a.61.61,0,0,0,.61-.61V90.31a.61.61,0,0,0-.61-.61H97.69V44.05Z"/><path class="cls-2" d="M144.3,55.85V23.19h9V35.61l9.93-12.42h10.12L161.46,37.82l12.69,18h-10.3l-8.1-12-2.48,2.57v9.43Z"/><path class="cls-2" d="M203.91,48v7.82H180.64V23.19H203.5V31H189.61v4.6h11.86v7.27H189.61V48Z"/><path class="cls-2" d="M221.67,39.8V55.85h-9V23.19h7L232.8,39.8V23.19h9V55.85h-7.13Z"/><path class="cls-2" d="M250.42,49.18,265.69,31H251.11V23.19H276v6.67L261.69,48h14.63v7.82h-25.9Z"/><path class="cls-2" d="M285.19,55.85V23.19h9V55.85Z"/><path class="cls-2" d="M326.73,48v7.82H303.46V23.19h22.86V31h-13.9v4.6h11.87v7.27H312.42V48Z"/><path class="cls-2" d="M361.23,23.19h8.19l11.31,32.66h-9.1l-2-6.39H361L359,55.85h-9.15Zm7,20.29-2.9-10.12-3,10.12Z"/><path class="cls-2" d="M384,39.25a16.13,16.13,0,0,1,1.13-5.89,15.82,15.82,0,0,1,3.29-5.2,17,17,0,0,1,5.24-3.73,18.21,18.21,0,0,1,15.25.53,12.76,12.76,0,0,1,5.17,5.18L407.23,35A5.78,5.78,0,0,0,406,33a6.13,6.13,0,0,0-1.68-1.25,7.28,7.28,0,0,0-1.91-.64,10.62,10.62,0,0,0-1.91-.18,6.85,6.85,0,0,0-3.33.76,6.78,6.78,0,0,0-2.3,2,8.61,8.61,0,0,0-1.33,2.76,10.88,10.88,0,0,0-.44,3.06,10.75,10.75,0,0,0,.5,3.27,8.53,8.53,0,0,0,1.48,2.76,7.14,7.14,0,0,0,2.37,1.91,6.89,6.89,0,0,0,3.15.71,8.81,8.81,0,0,0,1.88-.21,6.5,6.5,0,0,0,1.87-.69A6.36,6.36,0,0,0,406,46a5.47,5.47,0,0,0,1.12-1.86l7.32,4.37a9.44,9.44,0,0,1-2.23,3.22,14.21,14.21,0,0,1-3.41,2.39,17.92,17.92,0,0,1-4.09,1.47,18.76,18.76,0,0,1-4.26.51,15,15,0,0,1-6.64-1.45,16.91,16.91,0,0,1-5.2-3.84,17.39,17.39,0,0,1-3.38-5.43A16.63,16.63,0,0,1,384,39.25Z"/><path class="cls-2" d="M430.14,23.19h8.19l11.31,32.66h-9.11l-2-6.39h-8.7l-1.93,6.39h-9.15Zm7,20.29-2.9-10.12-3,10.12Z"/><path class="cls-2" d="M457,55.85V23.19h12.55a18.33,18.33,0,0,1,7.13,1.29,14.32,14.32,0,0,1,8.28,8.67A18.61,18.61,0,0,1,486,39.48a18.51,18.51,0,0,1-1.17,6.74,14.56,14.56,0,0,1-3.34,5.15,15,15,0,0,1-5.19,3.31,18.71,18.71,0,0,1-6.77,1.17Zm19.91-16.37a11.06,11.06,0,0,0-.5-3.45,7.62,7.62,0,0,0-1.45-2.67,6.57,6.57,0,0,0-2.32-1.73,7.51,7.51,0,0,0-3.09-.62h-3.58V48h3.58a7.3,7.3,0,0,0,3.13-.64,6.44,6.44,0,0,0,2.32-1.8,7.8,7.8,0,0,0,1.43-2.71A11.55,11.55,0,0,0,476.87,39.48Z"/><path class="cls-2" d="M516.85,48v7.82H493.57V23.19h22.86V31H502.54v4.6h11.87v7.27H502.54V48Z"/><path class="cls-2" d="M550.33,55.85V38.65l-5.47,12.1h-4.78l-5.48-12.1v17.2h-9V23.19h9.8l7,15.37,7.08-15.37h9.76V55.85Z"/><path class="cls-2" d="M575.68,23.19l5.84,14.12,6-14.12h9.75L586,45V55.85h-8.92V45L566,23.19Z"/><path class="cls-2" d="M143.82,87.85V75.07h8.59v2.18h-6.1v3.29h5.07v2h-5.07v5.29Z"/><path class="cls-2" d="M155,87.85V75.07h5.65a3.71,3.71,0,0,1,1.63.37,4.13,4.13,0,0,1,1.28,1,4.63,4.63,0,0,1,.85,1.37,4.19,4.19,0,0,1,.31,1.54,4.29,4.29,0,0,1-.62,2.26,3.59,3.59,0,0,1-1.69,1.47l2.92,4.8h-2.79L160,83.57h-2.45v4.28Zm2.48-6.46h3.11a1.27,1.27,0,0,0,.64-.16,1.82,1.82,0,0,0,.52-.44,2.57,2.57,0,0,0,.34-.66,2.64,2.64,0,0,0,.12-.81,2.23,2.23,0,0,0-.14-.83,2,2,0,0,0-.39-.65,1.78,1.78,0,0,0-.55-.44,1.5,1.5,0,0,0-.64-.15h-3Z"/><path class="cls-2" d="M173.34,87.94a5.73,5.73,0,0,1-2.54-.55,6.22,6.22,0,0,1-2-1.45,6.8,6.8,0,0,1-1.27-2.08,6.62,6.62,0,0,1-.44-2.4,6.4,6.4,0,0,1,.47-2.45,6.77,6.77,0,0,1,1.32-2.07,6.32,6.32,0,0,1,2-1.43A6,6,0,0,1,173.4,75a5.63,5.63,0,0,1,2.53.57A6.38,6.38,0,0,1,177.88,77a6.94,6.94,0,0,1,1.26,2.09A6.61,6.61,0,0,1,177.83,86a6.34,6.34,0,0,1-2,1.42A5.78,5.78,0,0,1,173.34,87.94Zm-3.71-6.48a5.06,5.06,0,0,0,.26,1.6,4,4,0,0,0,.73,1.37,3.43,3.43,0,0,0,1.17,1,3.33,3.33,0,0,0,1.57.36,3.39,3.39,0,0,0,1.59-.37,3.61,3.61,0,0,0,1.17-1,4.33,4.33,0,0,0,.72-1.38,4.9,4.9,0,0,0,.25-1.56,5.11,5.11,0,0,0-.26-1.6,4.52,4.52,0,0,0-.74-1.37,3.57,3.57,0,0,0-1.17-.94,3.65,3.65,0,0,0-3.16,0,3.46,3.46,0,0,0-1.17,1,4.35,4.35,0,0,0-.71,1.37A5.13,5.13,0,0,0,169.63,81.46Z"/><path class="cls-2" d="M192.8,87.85V79.39l-3.29,6.3h-1.35l-3.3-6.3v8.46h-2.48V75.07H185l3.78,7.27,3.82-7.27h2.64V87.85Z"/><path class="cls-2" d="M211.65,78.42a3.64,3.64,0,0,0-.46-.34,4.68,4.68,0,0,0-.81-.42,7.46,7.46,0,0,0-1-.36,4.79,4.79,0,0,0-1.13-.14,2.53,2.53,0,0,0-1.53.38,1.23,1.23,0,0,0-.51,1.06,1.17,1.17,0,0,0,.19.66,1.71,1.71,0,0,0,.55.46,5.07,5.07,0,0,0,.91.36l1.27.34c.62.17,1.19.35,1.7.54a4.62,4.62,0,0,1,1.3.72,3.14,3.14,0,0,1,.82,1,3.51,3.51,0,0,1,.28,1.49,3.65,3.65,0,0,1-.38,1.75,3.24,3.24,0,0,1-1.05,1.18,4.5,4.5,0,0,1-1.51.66,7.5,7.5,0,0,1-1.79.21,9.51,9.51,0,0,1-2.84-.44,8.43,8.43,0,0,1-2.52-1.22l1.09-2.14a3.41,3.41,0,0,0,.59.42,7.09,7.09,0,0,0,1,.52,8,8,0,0,0,1.28.45,5.68,5.68,0,0,0,1.44.17c1.36,0,2.05-.43,2.05-1.31a1,1,0,0,0-.24-.7,2,2,0,0,0-.66-.51,6.89,6.89,0,0,0-1.05-.39l-1.36-.4a11.37,11.37,0,0,1-1.6-.55,4,4,0,0,1-1.12-.7,2.66,2.66,0,0,1-.68-.93,3.28,3.28,0,0,1-.22-1.27,4,4,0,0,1,.36-1.73A3.36,3.36,0,0,1,205,76a4.53,4.53,0,0,1,1.48-.77,6.3,6.3,0,0,1,1.82-.26,6.84,6.84,0,0,1,2.48.43,9.15,9.15,0,0,1,2,1Z"/><path class="cls-2" d="M221.4,87.94a5.81,5.81,0,0,1-2.55-.55,6.29,6.29,0,0,1-2-1.45,6.8,6.8,0,0,1-1.27-2.08,6.63,6.63,0,0,1-.45-2.4,6.41,6.41,0,0,1,.48-2.45A6.94,6.94,0,0,1,217,76.94a6.48,6.48,0,0,1,2-1.43,6,6,0,0,1,2.51-.53,5.63,5.63,0,0,1,2.53.57A6.38,6.38,0,0,1,225.94,77a6.94,6.94,0,0,1,1.26,2.09,6.54,6.54,0,0,1,0,4.82,6.44,6.44,0,0,1-1.3,2,6.18,6.18,0,0,1-2,1.42A5.78,5.78,0,0,1,221.4,87.94Zm-3.71-6.48a5.06,5.06,0,0,0,.26,1.6,4.17,4.17,0,0,0,.72,1.37,3.63,3.63,0,0,0,1.17,1,3.62,3.62,0,0,0,3.17,0,3.71,3.71,0,0,0,1.17-1A4.33,4.33,0,0,0,224.9,83a4.9,4.9,0,0,0,.25-1.56,4.84,4.84,0,0,0-.27-1.6,4.5,4.5,0,0,0-.73-1.37,3.57,3.57,0,0,0-1.17-.94,3.65,3.65,0,0,0-3.16,0,3.46,3.46,0,0,0-1.17,1,4.35,4.35,0,0,0-.71,1.37A5.13,5.13,0,0,0,217.69,81.46Z"/><path class="cls-2" d="M235.84,85.75a2.74,2.74,0,0,0,2.45-1.3,3.89,3.89,0,0,0,.53-1.32,7.81,7.81,0,0,0,.15-1.54V75.07h2.47v6.52a9.26,9.26,0,0,1-.32,2.46,5.69,5.69,0,0,1-1,2,4.74,4.74,0,0,1-1.74,1.37,5.91,5.91,0,0,1-2.53.5,5.79,5.79,0,0,1-2.61-.53,4.8,4.8,0,0,1-1.73-1.4,5.54,5.54,0,0,1-1-2,9.9,9.9,0,0,1-.29-2.39V75.07h2.48v6.52a7.94,7.94,0,0,0,.15,1.56,4,4,0,0,0,.53,1.32,2.69,2.69,0,0,0,2.42,1.28Z"/><path class="cls-2" d="M254.38,77.25h-4.09v10.6h-2.46V77.25h-4.09V75.07h10.64Z"/><path class="cls-2" d="M267.59,75.07V87.85h-2.47V82.4h-5.79v5.45h-2.49V75.07h2.49v5.17h5.79V75.07Z"/><path class="cls-2" d="M280,85.67v2.18h-8.88V75.07h8.72v2.18h-6.23v3.08H279v2h-5.38v3.33Z"/><path class="cls-2" d="M282.83,87.85V75.07h5.66a3.71,3.71,0,0,1,1.63.37,4.38,4.38,0,0,1,1.28,1,4.84,4.84,0,0,1,.85,1.37,4.29,4.29,0,0,1-.32,3.8,3.53,3.53,0,0,1-1.68,1.47l2.92,4.8h-2.79l-2.61-4.28h-2.45v4.28Zm2.49-6.46h3.11a1.29,1.29,0,0,0,.64-.16,1.66,1.66,0,0,0,.51-.44,2.31,2.31,0,0,0,.35-.66,2.64,2.64,0,0,0,.12-.81,2.45,2.45,0,0,0-.14-.83,2.2,2.2,0,0,0-.39-.65,1.82,1.82,0,0,0-.56-.44,1.45,1.45,0,0,0-.63-.15h-3Z"/><path class="cls-2" d="M298.17,79.66v8.19h-2.48V75.07h1.92l6.66,8.39V75.09h2.49V87.85h-2Z"/><path class="cls-2" d="M318,79.66v8.19H315.5V75.07h1.93l6.66,8.39V75.09h2.48V87.85h-2Z"/><path class="cls-2" d="M339,85.67v2.18h-8.87V75.07h8.71v2.18H332.6v3.08H338v2H332.6v3.33Z"/><path class="cls-2" d="M346.23,75.11h2.29L350,79.34l1.44-4.23h2.3l-2.18,5.81L353.14,85l3.62-9.94h2.7l-5.2,12.78h-2.09L350,82.49l-2.22,5.36h-2.09l-5.16-12.78h2.66L346.79,85l1.58-4.09Z"/><path class="cls-2" d="M377,75.07V87.85h-2.46V82.4h-5.8v5.45h-2.48V75.07h2.48v5.17h5.8V75.07Z"/><path class="cls-2" d="M384.17,75.07h2.2l4.86,12.78h-2.56l-1.18-3.18H383l-1.17,3.18H379.3ZM387,82.92l-1.77-5-1.83,5Z"/><path class="cls-2" d="M403.94,87.85V79.39l-3.3,6.3h-1.35L396,79.39v8.46h-2.48V75.07h2.66L400,82.34l3.82-7.27h2.64V87.85Z"/><path class="cls-2" d="M410,87.85V75.07h5.42a3.67,3.67,0,0,1,1.62.37,4.29,4.29,0,0,1,1.29,1,4.84,4.84,0,0,1,.85,1.37,4.18,4.18,0,0,1,.3,1.54,4.5,4.5,0,0,1-.28,1.58,4.58,4.58,0,0,1-.81,1.35,4,4,0,0,1-1.26,1,3.69,3.69,0,0,1-1.62.36h-3v4.28Zm2.48-6.46h2.88a1.38,1.38,0,0,0,1.14-.56,2.27,2.27,0,0,0,.46-1.51,2.41,2.41,0,0,0-.14-.87,2.12,2.12,0,0,0-.38-.66,1.45,1.45,0,0,0-.55-.4,1.61,1.61,0,0,0-.64-.14h-2.77Z"/><path class="cls-2" d="M429.68,78.42a3.64,3.64,0,0,0-.46-.34,4.34,4.34,0,0,0-.81-.42,7,7,0,0,0-1-.36,4.79,4.79,0,0,0-1.13-.14,2.57,2.57,0,0,0-1.53.38,1.23,1.23,0,0,0-.5,1.06,1.16,1.16,0,0,0,.18.66,1.71,1.71,0,0,0,.55.46,5.07,5.07,0,0,0,.91.36l1.27.34c.63.17,1.19.35,1.7.54a4.62,4.62,0,0,1,1.3.72,3,3,0,0,1,.82,1,3.5,3.5,0,0,1,.29,1.49,3.65,3.65,0,0,1-.39,1.75,3.24,3.24,0,0,1-1,1.18,4.5,4.5,0,0,1-1.51.66,7.44,7.44,0,0,1-1.79.21,9.51,9.51,0,0,1-2.84-.44,8.43,8.43,0,0,1-2.52-1.22l1.1-2.14a2.9,2.9,0,0,0,.58.42,7.68,7.68,0,0,0,1,.52,8,8,0,0,0,1.28.45,5.79,5.79,0,0,0,1.44.17c1.37,0,2.05-.43,2.05-1.31a1.09,1.09,0,0,0-.23-.7,2.15,2.15,0,0,0-.67-.51,7.15,7.15,0,0,0-1-.39l-1.37-.4a11.84,11.84,0,0,1-1.6-.55,4,4,0,0,1-1.12-.7,2.51,2.51,0,0,1-.67-.93,3.1,3.1,0,0,1-.23-1.27,4,4,0,0,1,.36-1.73A3.36,3.36,0,0,1,423,76a4.53,4.53,0,0,1,1.48-.77,6.3,6.3,0,0,1,1.82-.26,6.93,6.93,0,0,1,2.49.43,9.63,9.63,0,0,1,2,1Z"/><path class="cls-2" d="M444.73,75.07V87.85h-2.47V82.4h-5.8v5.45H434V75.07h2.48v5.17h5.8V75.07Z"/><path class="cls-2" d="M448.27,87.85V75.07h2.49V87.85Z"/><path class="cls-2" d="M454.3,87.85V75.07H460a3.71,3.71,0,0,1,1.63.37,4.29,4.29,0,0,1,1.29,1,4.84,4.84,0,0,1,.85,1.37,4.18,4.18,0,0,1,.3,1.54,4.29,4.29,0,0,1-.62,2.26,3.53,3.53,0,0,1-1.68,1.47l2.91,4.8h-2.79l-2.61-4.28h-2.44v4.28Zm2.49-6.46h3.11a1.29,1.29,0,0,0,.64-.16,1.66,1.66,0,0,0,.51-.44,2.06,2.06,0,0,0,.34-.66,2.37,2.37,0,0,0,.13-.81,2.45,2.45,0,0,0-.14-.83,2.2,2.2,0,0,0-.39-.65,1.82,1.82,0,0,0-.56-.44,1.46,1.46,0,0,0-.64-.15h-3Z"/><path class="cls-2" d="M476,85.67v2.18h-8.88V75.07h8.72v2.18h-6.23v3.08H475v2h-5.38v3.33Z"/><path class="cls-2" d="M489.46,85.75a2.85,2.85,0,0,0,1.48-.36,2.82,2.82,0,0,0,1-.94,3.69,3.69,0,0,0,.52-1.32,7.12,7.12,0,0,0,.16-1.54V75.07h2.46v6.52a9.26,9.26,0,0,1-.31,2.46,5.69,5.69,0,0,1-1,2A4.74,4.74,0,0,1,492,87.44a6,6,0,0,1-2.54.5,5.74,5.74,0,0,1-2.6-.53,4.92,4.92,0,0,1-1.74-1.4,5.69,5.69,0,0,1-1-2,9.43,9.43,0,0,1-.29-2.39V75.07h2.48v6.52a7.94,7.94,0,0,0,.15,1.56,4,4,0,0,0,.52,1.32,3,3,0,0,0,1,.93A2.84,2.84,0,0,0,489.46,85.75Z"/><path class="cls-2" d="M500.92,79.66v8.19h-2.48V75.07h1.92L507,83.46V75.09h2.49V87.85h-2Z"/><path class="cls-2" d="M513.05,87.85V75.07h2.49V87.85Z"/><path class="cls-2" d="M520.4,75.07l3.45,9.67,3.42-9.67h2.61l-5,12.78h-2.09l-5-12.78Z"/><path class="cls-2" d="M541,85.67v2.18h-8.88V75.07h8.71v2.18h-6.22v3.08H540v2h-5.38v3.33Z"/><path class="cls-2" d="M543.83,87.85V75.07h5.65a3.68,3.68,0,0,1,1.63.37,4.29,4.29,0,0,1,1.29,1,4.84,4.84,0,0,1,.85,1.37,4.29,4.29,0,0,1-.32,3.8,3.53,3.53,0,0,1-1.68,1.47l2.92,4.8h-2.79l-2.62-4.28h-2.44v4.28Zm2.49-6.46h3.11a1.29,1.29,0,0,0,.64-.16,1.66,1.66,0,0,0,.51-.44,2.06,2.06,0,0,0,.34-.66,2.37,2.37,0,0,0,.13-.81,2.45,2.45,0,0,0-.14-.83,2.2,2.2,0,0,0-.39-.65,1.82,1.82,0,0,0-.56-.44,1.46,1.46,0,0,0-.64-.15h-3Z"/><path class="cls-2" d="M564.3,78.42a3.64,3.64,0,0,0-.46-.34,4.34,4.34,0,0,0-.81-.42,7,7,0,0,0-1-.36,4.79,4.79,0,0,0-1.13-.14,2.57,2.57,0,0,0-1.53.38,1.23,1.23,0,0,0-.5,1.06,1.09,1.09,0,0,0,.19.66,1.56,1.56,0,0,0,.54.46,5.07,5.07,0,0,0,.91.36l1.27.34c.63.17,1.19.35,1.7.54a4.62,4.62,0,0,1,1.3.72,3,3,0,0,1,.82,1,3.5,3.5,0,0,1,.29,1.49,3.65,3.65,0,0,1-.39,1.75,3.3,3.3,0,0,1-1,1.18,4.64,4.64,0,0,1-1.52.66,7.44,7.44,0,0,1-1.79.21,9.51,9.51,0,0,1-2.84-.44,8.43,8.43,0,0,1-2.52-1.22l1.1-2.14a2.9,2.9,0,0,0,.58.42,7.68,7.68,0,0,0,1,.52,8,8,0,0,0,1.28.45,5.79,5.79,0,0,0,1.44.17c1.37,0,2.05-.43,2.05-1.31a1.09,1.09,0,0,0-.23-.7,2.15,2.15,0,0,0-.67-.51,7.15,7.15,0,0,0-1-.39l-1.37-.4a12.34,12.34,0,0,1-1.6-.55,4.11,4.11,0,0,1-1.12-.7,2.63,2.63,0,0,1-.67-.93,3.1,3.1,0,0,1-.23-1.27,4,4,0,0,1,.36-1.73,3.36,3.36,0,0,1,1-1.26,4.53,4.53,0,0,1,1.48-.77,6.3,6.3,0,0,1,1.82-.26,6.93,6.93,0,0,1,2.49.43,9.63,9.63,0,0,1,2,1Z"/><path class="cls-2" d="M568.6,87.85V75.07h2.48V87.85Z"/><path class="cls-2" d="M584.19,77.25H580.1v10.6h-2.46V77.25h-4.09V75.07h10.64Z"/><path class="cls-2" d="M588.09,75.07l3.15,6.16,3.21-6.16h2.68l-4.64,8.32v4.46H590v-4.5l-4.63-8.28Z"/></g></g></svg>