<svg height="44" viewBox="0 0 217 44" width="217" xmlns="http://www.w3.org/2000/svg"><g fill="#3b5998"><path d="m112.020508 21.5966797c-1.78418 0-3.070313.5849609-4.374024 1.1811523v13.4858398c1.249024.1191406 1.964844.1191406 3.150391.1191406 4.282227 0 4.869141-1.9609375 4.869141-4.6992188v-6.4414062c0-2.0214843-.670899-3.6455077-3.645508-3.6455077zm-28.4379885-.7358399c-2.9707031 0-3.6494141 1.6313477-3.6494141 3.6508789v1.1347656h7.2944336v-1.1347656c0-2.0195312-.6777343-3.6508789-3.6450195-3.6508789zm-55.0898437 14.0375977c0 1.5976562.7539062 2.4277344 2.4179688 2.4277344 1.7851562 0 2.8417969-.5820312 4.1445312-1.1796875v-3.1992188h-3.9033203c-1.847168 0-2.6591797.34375-2.6591797 1.9511719zm111.1909182-13.3017578c-2.975586 0-4.006836 1.6240234-4.006836 3.6455078v7.3789062c0 2.0273438 1.03125 3.65625 4.006836 3.65625 2.967773 0 4.006836-1.6289062 4.006836-3.65625v-7.3789062c0-2.0214844-1.039063-3.6455078-4.006836-3.6455078zm-125.7744143 21.5751953h-8.7475586v-21.1743164h-4.371582v-7.2963867h4.371582v-4.3808594c0-5.9526367 2.4672852-9.4921875 9.4790039-9.4921875h5.8378906v7.2978516h-3.6489258c-2.7299805 0-2.909668 1.0195312-2.909668 2.9228516l-.0107422 3.6523438h6.6103516l-.7734375 7.2963867h-5.8369141v21.1743163zm29.8969726.0546875h-7.2905273l-.315918-1.84375c-3.3291016 1.84375-6.300293 2.1425781-8.2602539 2.1425781-5.3466797 0-8.1933594-3.5722656-8.1933594-8.5117188 0-5.828125 3.3208008-7.9082031 9.262207-7.9082031h6.046875v-1.2597656c0-2.9741211-.3408203-3.8481445-4.9155273-3.8481445h-7.4799804l.7314453-7.2963867h8.1762695c10.0380859 0 12.2387695 3.1708984 12.2387695 11.203125zm24.7929688-20.6938477c-4.5371094-.7773438-5.8398438-.9482422-8.0229492-.9482422-3.9213867 0-5.1064453.8652344-5.1064453 4.1948242v6.2988281c0 3.3300781 1.1850586 4.1992188 5.1064453 4.1992188 2.1831055 0 3.4858398-.1738281 8.0229492-.9550781v7.1171875c-3.9741211.890625-6.5629883 1.125-8.7514648 1.125-9.3920898 0-13.1254883-4.9394531-13.1254883-12.0742188v-5.1113281c0-7.1411133 3.7333984-12.0888672 13.1254883-12.0888672 2.1884766 0 4.7773438.2353516 8.7514648 1.1298828zm27.3759766 8.9575196h-16.0419922v.5878906c0 3.3300781 1.1860352 4.1992188 5.1064453 4.1992188 3.5244141 0 5.675293-.1738281 10.2041016-.9550781v7.1171875c-4.3676758.890625-6.6435547 1.125-10.9291992 1.125-9.3925781 0-13.1279297-4.9394531-13.1279297-12.0742188v-5.84375c0-6.2426758 2.7714844-11.3564453 12.3959961-11.3564453s12.3925781 5.0541992 12.3925781 11.3564453zm28.4370113.1347656c0 6.8964844-1.970703 11.9257812-13.911132 11.9257812-4.311524 0-6.840821-.3789062-11.5996098-1.1113281v-39.4204101l8.7451168-1.4594727v13.7890625c1.889649-.7021484 4.335938-1.0585938 6.5625-1.0585938 8.746094 0 10.203125 3.9208984 10.203125 10.2216797zm28.033203.1503906c0 5.9492188-2.456054 11.71875-12.732421 11.71875-10.28125 0-12.783203-5.7695312-12.783203-11.71875v-5.7441406c0-5.9521484 2.501953-11.7226562 12.783203-11.7226562 10.276367 0 12.732421 5.7705078 12.732421 11.7226562zm28.013672 0c0 5.9492188-2.458984 11.71875-12.733398 11.71875-10.28125 0-12.783203-5.7695312-12.783203-11.71875v-5.7441406c0-5.9521484 2.501953-11.7226562 12.783203-11.7226562 10.274414 0 12.733398 5.7705078 12.733398 11.7226562zm28.749024 11.3964844h-9.479492l-8.016602-13.3828125v13.3828125h-8.748047v-40.152832l8.748047-1.4594727v25.8486328l8.016602-12.7070312h9.479492l-8.751953 13.8671875zm-41.511719-21.5751953c-2.970703 0-4.001953 1.6240234-4.001953 3.6455078v7.3789062c0 2.0273438 1.03125 3.65625 4.001953 3.65625 2.966797 0 4.016602-1.6289062 4.016602-3.65625v-7.3789062c0-2.0214844-1.049805-3.6455078-4.016602-3.6455078z"/><path d="m214.201172 38.1777344c1.472656 0 2.646484 1.2011719 2.646484 2.7011719 0 1.5234375-1.173828 2.7109375-2.657226 2.7109375-1.475586 0-2.672852-1.1875-2.672852-2.7109375 0-1.5 1.197266-2.7011719 2.672852-2.7011719zm-.010742.4199217c-1.186524 0-2.158203 1.0214845-2.158203 2.2812501 0 1.2832031.971679 2.2910156 2.168945 2.2910156 1.198242.0117188 2.155273-1.0078125 2.155273-2.2792969s-.957031-2.2929688-2.155273-2.2929688zm-.503907 3.8535159h-.480468v-3.013672c.251953-.0351562.492187-.0703125.851562-.0703125.456055 0 .753906.0957031.936523.2265625.176758.1328125.272461.3359375.272461.6230469 0 .3984375-.261718.6367188-.584961.734375v.0234375c.262696.0488281.442383.2871094.50293.7304688.070313.46875.142578.6484375.19043.7460938h-.50293c-.071289-.0976562-.143555-.3730469-.204101-.7695312-.070313-.3828125-.263672-.5273438-.648438-.5273438h-.333008zm0-1.6679689h.347657c.393554 0 .728515-.1445312.728515-.5175781 0-.2636719-.19043-.5273438-.728515-.5273438-.157227 0-.265625.0117188-.347657.0234375z"/></g></svg>