<svg height="28" viewBox="0 0 124 28" width="124" xmlns="http://www.w3.org/2000/svg"><g><path d="m21.8163355 0h-6.1041942c0 5.02352941-2.2993378 9.60784314-6.29580576 12.627451l-2.40883002 1.8117647 9.36158938 12.7921568h7.6918323l-8.6225166-11.7764705c4.0785872-4.0627451 6.3779249-9.55294122 6.3779249-15.454902z"/><path d="m0 0h6.24106v27.231373h-6.24106z"/><path d="m25.86755 0h5.88521v27.231373h-5.88521z"/><path d="m83.3783664 7.87843137c-2.2445916 0-4.3796909.68627451-5.8030905 2.63529413v-2.1137255h-5.5841059v18.8313725h5.6662251v-9.8823529c0-2.854902 1.9161148-4.254902 4.2154526-4.254902 2.4635761 0 3.8869757 1.482353 3.8869757 4.227451v9.9372549h5.611479v-11.9960784c0-4.3921569-3.4763797-7.38431373-7.992936-7.38431373z"/><path d="m49.5452539 8.4v1.20784314c-1.587638-1.09803922-3.5037528-1.72941177-5.584106-1.72941177-5.4746137 0-9.9090508 4.44705883-9.9090508 9.93725493s4.4344371 9.9372549 9.9090508 9.9372549c2.0803532 0 3.996468-.6313726 5.584106-1.7294118v1.2078431h5.611479v-18.8313725zm-5.1187638 14.2470588c-2.8194261 0-5.0913908-2.1686274-5.0913908-4.8313725s2.2719647-4.8313726 5.0913908-4.8313726c2.819426 0 5.0913907 2.1686275 5.0913907 4.8313726s-2.2719647 4.8313725-5.0913907 4.8313725z"/><path d="m63.8613687 10.8431373v-2.4431373h-5.7483444v18.8313725h5.7757174v-8.7843137c0-2.9647059 3.202649-4.5568627 5.4198676-4.5568627h.0547461v-5.4901961c-2.2719647 0-4.3796909.98823529-5.5019867 2.4431373z"/><path d="m108.83532 8.4v1.20784314c-1.587638-1.09803922-3.503753-1.72941177-5.584106-1.72941177-5.4746136 0-9.9090506 4.44705883-9.9090506 9.93725493s4.434437 9.9372549 9.9090506 9.9372549c2.080353 0 3.996468-.6313726 5.584106-1.7294118v1.2078431h5.611479v-18.8313725zm-5.118764 14.2470588c-2.819426 0-5.0913904-2.1686274-5.0913904-4.8313725s2.2719644-4.8313726 5.0913904-4.8313726 5.091391 2.1686275 5.091391 4.8313726c.027373 2.6627451-2.271965 4.8313725-5.091391 4.8313725z"/><g transform="translate(116.883002 7.686275)"><path d="m2.19497792 1.2627451c0-.27450981-.24436936-.43921569-.62837837-.43921569h-.66328829v1.42745098h.31418919v-.52156863h.3490991l.27927928.52156863h.34909909l-.31418918-.57647059c.20945946-.08235294.31418918-.21960784.31418918-.4117647zm-.62837837.21960784h-.3490991v-.43921569h.3490991c.20945946 0 .31418919.08235295.31418919.21960785s-.06981982.21960784-.31418919.21960784z"/><path d="m1.34128035.21960784c-.73907284 0-1.34128035.60392157-1.34128035 1.34509804.02737307.74117647.60220751 1.34509804 1.34128035 1.34509804.73907285 0 1.34128036-.60392157 1.34128036-1.34509804s-.60220751-1.34509804-1.34128036-1.34509804zm0 2.44313726c-.6022075 0-1.06754967-.49411765-1.06754967-1.09803922s.49271524-1.09803921 1.06754967-1.09803921c.60220751 0 1.06754967.49411764 1.06754967 1.09803921s-.49271523 1.09803922-1.06754967 1.09803922z"/></g><path d="m120.441501 20.5607843c-1.943488 0-3.531126 1.5921569-3.531126 3.5411765s1.587638 3.5411765 3.531126 3.5411765 3.531126-1.5921569 3.531126-3.5411765c0-1.9764706-1.587638-3.5411765-3.531126-3.5411765z"/></g></svg>