<svg width="300" height="64" viewBox="0 0 300 64" fill="none" xmlns="http://www.w3.org/2000/svg">
<path d="M32.2 21.7L1 1.10001V62.9H62.8V1.10001L32.2 21.7Z" fill="white"/>
<path d="M91.8 55.7L100 13.8L113.4 44.1L127.3 13.8L134.7 55.7H128.7L124.9 32.1L113.4 57.4L102.2 32L98 55.6H91.8V55.7Z" fill="white"/>
<path d="M165.8 46.3H149.1L144.8 55.8H138.5L157.8 14.3L176.4 55.8H170L165.8 46.3ZM163.4 40.7L157.6 27.4L151.5 40.7H163.4Z" fill="white"/>
<path d="M187.1 32.3L202.3 16.7H210.2L192.6 34.4L210.3 55.8H202.4L188.4 38.4L187.2 39.6V55.7H181.3V16.7H187.2V32.3H187.1Z" fill="white"/>
<path d="M237 22.2H221.4V31.6H236.6V37.1H221.4V50.1H237V55.6H215.5V16.6H237V22.2Z" fill="white"/>
<path d="M258 39.1L270.1 55.7H262.9L251.8 39.7H250.7V55.7H244.8V16.7H251.7C256.9 16.7 260.6 17.7 262.9 19.6C265.4 21.8 266.7 24.6 266.7 28.1C266.7 30.9 265.9 33.2 264.3 35.2C262.7 37.3 260.6 38.5 258 39.1ZM250.7 34.6H252.6C258.2 34.6 261 32.5 261 28.2C261 24.2 258.3 22.2 252.9 22.2H250.8V34.6H250.7Z" fill="white"/>
<path d="M298 22.5L293.2 25.3C292.3 23.8 291.5 22.7 290.6 22.3C289.8 21.8 288.7 21.5 287.3 21.5C285.7 21.5 284.3 22 283.2 22.9C282.1 23.8 281.6 25 281.6 26.3C281.6 28.2 283 29.7 285.8 30.9L289.7 32.5C292.9 33.8 295.2 35.3 296.6 37.2C298.1 39 298.8 41.3 298.8 44C298.8 47.6 297.6 50.6 295.2 52.9C292.8 55.3 289.8 56.4 286.2 56.4C282.8 56.4 280 55.4 277.8 53.4C275.6 51.4 274.3 48.6 273.7 44.9L279.7 43.6C280 45.9 280.4 47.5 281.1 48.4C282.3 50.1 284.1 50.9 286.4 50.9C288.2 50.9 289.8 50.3 291 49.1C292.2 47.9 292.8 46.3 292.8 44.4C292.8 43.6 292.7 42.9 292.5 42.3C292.3 41.7 292 41.1 291.5 40.6C291.1 40.1 290.5 39.6 289.8 39.1C289.1 38.6 288.3 38.2 287.3 37.8L283.5 36.2C278.2 33.9 275.5 30.6 275.5 26.3C275.5 23.4 276.6 20.9 278.9 18.9C281.1 16.9 283.9 15.9 287.3 15.9C291.9 16 295.5 18.1 298 22.5Z" fill="white"/>
</svg>
