<svg height="28" viewBox="0 0 130 28" width="130" xmlns="http://www.w3.org/2000/svg" xmlns:xlink="http://www.w3.org/1999/xlink"><mask id="a" fill="#fff"><path d="m.709.135h12.802v14.236h-12.802z" fill="#fff" fill-rule="evenodd"/></mask><mask id="b" fill="#fff"><path d="m.633.339h4.456v7.636h-4.456z" fill="#fff" fill-rule="evenodd"/></mask><mask id="c" fill="#fff"><path d="m.115.339h4.455v7.636h-4.455z" fill="#fff" fill-rule="evenodd"/></mask><mask id="d" fill="#fff"><path d="m0 27.117h129.282v-26.982h-129.282z" fill="#fff" fill-rule="evenodd"/></mask><g fill="#000" fill-rule="evenodd"><path d="m0 .798v2.846h5.096v11.35h3.422v-11.35h5.335v-2.846zm27.73 0v5.511h-8.262v-5.511h-3.341v14.196h3.341v-5.495h8.262v5.495h3.31v-14.196zm5.855 0v2.967h3.9v8.119h-3.9v3.11h10.894v-3.11h-3.86v-8.119h3.86v-2.967zm25.553 0v9.817l-.12-.183-8.613-9.634h-3.35v14.196h3.19v-9.937l.144.199 8.749 9.738h3.19v-14.196zm17.474 0-7.784 6.827v-6.827h-3.341v14.196h3.341v-3.94l3.66-3.078 4.874 7.018h3.987l-6.428-8.837 6.189-5.359zm6.253 0v14.196h3.27v-5.096h9.57v-2.967h-9.57v-3.19h9.89v-2.943z"/><g transform="translate(0 .663)"><path d="m101.6 13.908c-2.29-1.092-3.462-3.405-3.462-7.393v-6.38h3.502v6.253c-.04 1.036.122 2.072.477 3.046.639 1.492 1.891 2.09 3.725 2.09.791.028 1.576-.137 2.289-.479 1.228-.614 1.81-2.05 1.81-4.657v-6.253h3.502v6.38c.07 1.645-.245 3.283-.918 4.785-1.228 2.433-3.517 3.446-6.722 3.446-1.446.036-2.882-.25-4.204-.838"/><path d="m.709.135h3.382v11.046h9.42v3.19h-12.802z" mask="url(#a)" transform="translate(115.644)"/><path d="m61.955 23.993c.319-.335.494-.734.494-1.116v-.335c-.2.167-.582.254-1.085.342-.693.104-.988.183-1.243.35-.215.136-.326.336-.326.607 0 .43.286.693.884.693.527 0 .965-.207 1.276-.541m-1.515 1.155c-.98 0-1.49-.478-1.49-1.211 0-.479.223-.86.59-1.085.126-.088.255-.143.39-.2.279-.095.662-.174 1.267-.262.806-.12 1.243-.191 1.243-.622 0-.493-.326-.805-1.18-.805-.9 0-1.338.438-1.378 1.076h-.789c.024-.335.128-.622.295-.876.35-.51.972-.813 1.84-.813 1.42 0 1.962.598 1.962 1.538v3.14h-.63l-.088-1.131c-.318.7-1.02 1.251-2.032 1.251m8.749 0c-1.579 0-2.455-.916-2.455-2.71v-.414c0-1.786.924-2.758 2.487-2.758 1.37 0 2.191.678 2.344 2.048h-.814c-.104-.869-.59-1.347-1.53-1.347-1.077 0-1.69.725-1.69 2.096v.343c0 1.299.59 2 1.69 2 .964 0 1.458-.54 1.554-1.418h.829c-.136 1.347-.9 2.16-2.415 2.16m3.382-.12v-6.098h.742v2.463c.278-.629.837-1.043 1.65-1.043 1.172 0 1.745.733 1.745 1.897v2.781h-.773v-2.59c0-.837-.35-1.41-1.252-1.41-.876 0-1.37.661-1.37 1.61v2.39zm5.862-2.63h2.95c-.065-.869-.542-1.419-1.42-1.419-.877 0-1.434.535-1.53 1.42m1.498 2.75c-1.514 0-2.272-.894-2.272-2.312v-.096c0-.478.096-.893.28-1.26.374-.717 1.075-1.13 2.016-1.13.503 0 .918.103 1.236.317.653.431.964 1.156.964 1.978v.366h-3.73c.056.94.597 1.482 1.538 1.482.662 0 1.124-.286 1.292-.82h.837c-.263.94-1.029 1.474-2.16 1.474"/><path d="m4.021 2.81v-.016c0-.254-.064-.454-.167-.605-.216-.302-.582-.406-1.012-.406-.072 0-.12.008-.177.015-.654.04-1.075.399-1.068 1.004v.017c0 .621.423.964 1.18.964.814 0 1.244-.35 1.244-.972m.35 3.682c0-.399-.278-.662-1.06-.662h-.844c-.726.056-1.077.352-1.077.79v.008c0 .398.367.7 1.244.7h.143c1.14 0 1.594-.333 1.594-.836m-2.91 1.347c-.605-.183-.828-.518-.828-.98 0-.502.311-.87 1.028-1.052-.59-.088-.86-.384-.86-.813 0-.446.343-.766 1.011-.885-.661-.191-.988-.622-.988-1.316v-.007c0-.845.59-1.379 1.65-1.483.088-.024.303-.032.407-.032.303-.024.51-.055.662-.111.302-.128.366-.351.366-.733v-.089h.877v.136c0 .215-.04.391-.112.526-.151.28-.51.407-1.18.43h.017c.279.033.51.12.7.247.384.264.583.654.583 1.092v.032c0 .965-.75 1.555-2.017 1.555h-.151c-.312 0-.55.015-.71.056-.334.064-.43.199-.43.382 0 .255.215.391.79.383h1.067c1.228 0 1.746.486 1.746 1.275 0 .909-.693 1.523-2.32 1.523h-.072c-.525 0-.932-.048-1.235-.136" mask="url(#b)" transform="translate(82.147 19.141)"/><path d="m3.503 2.81v-.016c0-.254-.064-.454-.168-.605-.215-.302-.581-.406-1.012-.406-.072 0-.12.008-.176.015-.654.04-1.076.399-1.068 1.004v.017c0 .621.422.964 1.18.964.813 0 1.244-.35 1.244-.972m.35 3.682c0-.399-.279-.662-1.06-.662h-.845c-.725.056-1.077.352-1.077.79v.008c0 .398.367.7 1.245.7h.142c1.14 0 1.595-.333 1.595-.836m-2.91 1.347c-.605-.183-.828-.518-.828-.98 0-.502.31-.87 1.028-1.052-.59-.088-.861-.384-.861-.813 0-.446.343-.766 1.012-.885-.662-.19-.988-.622-.988-1.316v-.007c0-.845.59-1.379 1.65-1.483.088-.024.302-.032.406-.032.303-.024.51-.055.662-.111.302-.128.366-.351.366-.733v-.089h.877v.136c0 .215-.04.391-.111.526-.152.28-.51.407-1.18.43h.016c.28.033.51.12.701.247.383.264.582.654.582 1.092v.032c0 .965-.75 1.555-2.017 1.555h-.15c-.312 0-.55.015-.71.056-.335.064-.43.199-.43.382 0 .255.214.391.789.383h1.068c1.227 0 1.745.486 1.745 1.275 0 .909-.693 1.523-2.319 1.523h-.071c-.526 0-.933-.048-1.236-.136" mask="url(#c)" transform="translate(87.73 19.141)"/><path d="m94.128 20.788h.255c.248 0 .344-.087.344-.255 0-.167-.105-.215-.327-.215h-.272zm0 .869h-.343v-1.642h.654c.463 0 .638.215.638.502 0 .223-.103.358-.32.422.185.04.264.16.264.407v.223c0 .04.008.08.032.088h-.35c-.025-.008-.032-.04-.032-.096v-.215c0-.192-.032-.255-.28-.255h-.263zm1.411-.75v-.079c0-.781-.478-1.212-1.163-1.212-.686 0-1.149.455-1.149 1.22v.071c0 .782.463 1.189 1.165 1.189.685 0 1.147-.407 1.147-1.189zm-1.937 1.363c-.47-.214-.757-.653-.757-1.338v-.12c0-.319.071-.598.207-.83.27-.462.75-.716 1.324-.716.287 0 .541.055.772.182.471.248.765.71.765 1.348v.136c0 .318-.071.597-.206.82-.28.447-.75.686-1.315.686-.288 0-.559-.048-.79-.168zm5.496 1.268h.837c.096.653.621.948 1.34.948.844 0 1.155-.342 1.155-.773 0-.183-.063-.31-.191-.398-.264-.184-.71-.248-1.188-.312-.414-.063-.845-.143-1.188-.31-.343-.183-.566-.47-.566-.965 0-.255.064-.486.191-.685.271-.43.797-.693 1.62-.693 1.234 0 1.872.557 1.991 1.443h-.79c-.07-.543-.477-.814-1.21-.814-.782 0-1.037.335-1.037.71 0 .168.064.303.2.399.271.166.71.23 1.187.302.415.064.846.144 1.188.311.343.184.558.462.558.964 0 .28-.072.526-.207.75-.28.446-.829.734-1.73.734-1.291 0-2.033-.551-2.16-1.611m5.59-1.14h2.949c-.063-.869-.541-1.419-1.418-1.419-.878 0-1.435.535-1.531 1.42m1.499 2.75c-1.516 0-2.273-.894-2.273-2.312v-.096c0-.478.096-.893.28-1.26.374-.717 1.075-1.13 2.017-1.13.501 0 .916.103 1.235.317.653.431.964 1.156.964 1.978v.366h-3.73c.056.94.597 1.482 1.539 1.482.66 0 1.123-.286 1.29-.82h.837c-.262.94-1.028 1.474-2.16 1.474m3.168-4.671h.63l.103 1.132c.192-.757.71-1.164 1.65-1.164h.28v.78h-.383c-.383 0-.694.057-.909.176-.446.248-.606.718-.606 1.499v2.128h-.765zm3.182 0h.813l1.411 3.635 1.458-3.635h.814l-1.938 4.551h-.701z"/><path d="m117.791 25.029h.789v-4.552h-.789zm-.143-5.684c0-.406.183-.55.55-.55s.542.144.542.55c0 .399-.175.55-.542.55-.399 0-.55-.143-.55-.55zm1.906 3.483v-.104c0-.51.104-.924.303-1.29.399-.702 1.108-1.084 1.976-1.084 1.204 0 2.05.59 2.185 1.857v.016h-.805v-.016c-.127-.814-.622-1.188-1.372-1.188-.876 0-1.49.606-1.49 1.705v.088c0 1.036.55 1.642 1.482 1.642.79 0 1.253-.398 1.388-1.187v-.008h.804v.016c-.135 1.291-.98 1.873-2.199 1.873-1.443 0-2.272-.853-2.272-2.32m6.006-.43h2.948c-.063-.869-.54-1.419-1.418-1.419-.877 0-1.435.535-1.53 1.42m1.498 2.75c-1.515 0-2.272-.894-2.272-2.312v-.096c0-.478.096-.893.28-1.26.374-.717 1.075-1.13 2.016-1.13.502 0 .917.103 1.236.317.653.431.964 1.156.964 1.978v.366h-3.73c.056.94.597 1.482 1.538 1.482.661 0 1.124-.286 1.291-.82h.837c-.262.94-1.028 1.474-2.16 1.474" mask="url(#d)"/></g></g></svg>